_________________________  Visit us at _________________________
  
http://p2pdl.com  ____________________________  http://p2pdl.com

 
http://cdn.piczend.com/images/4xbHh0H4/1365402044_got.jpg


Game of Thrones S03E08 480p HDTV x264 - VYTO

Game of Thrones S03E08 (Second Sons)

 
http://www.imdb.com/title/tt2178806/


Format                         : MPEG-4
File size                      : 184 MiB
Duration                       : 58mn 5s
Overall bit rate               : 443 Kbps
Source                         : EVOLVE(Thanks)

Video
Format                         : AVC
Bit rate                       : 400 Kbps
Width                          : 720 pixels
Height                         : 400 pixels
Display aspect ratio           : 16:9
Frame rate mode                : Constant
Frame rate                     : 23.976 fps
Stream size                    : 166 MiB (90%)
Writing library                : x264 core 130 r2273

Audio
Format                         : AAC
Bit rate                       : 40.0 Kbps
Channel(s)                     : 2 channels
Channel positions              : Front: L R
Sampling rate                  : 44.1 KHz
Stream size                    : 16.6 MiB (9%)
Language                       : English

Subtitle: Yes(English)


----------------------------------------------------------------------------------------------------


Encoded using revolutionary 10bit encoding, which enables us to provide you more crispier 
and sharper images at small sizes, just make sure you follow our instructions without a fault.
Recommend to you to use latest version of VLC player. Install K-Lite Codec Pack or shark007 codecs
in case of any kind of problem in playback (For non-VLC Media Player users). Alternatively, install
Core AVC codecs, the fastest decoder that there is coupled with Community Center Codec Pack and play
on Windows Media Player Classic. Check sample to be sure.
Enjoy!

Encoder Notes:Looking For Early Access To Anything You Can Provide DVDScr, R5, DVDR, BluRay, Direct
Audio, Music Releases and Seedboxes. We require dedicated servers, so as to do more 
and fast releases of movies.
If You Got anything to offer please contact us at "contact@p2pdl.com".
This our 1st TV upload.

Face book Fan Page:   
http://www.fb.me/p2pdl